HIERARCHY
ROOT Hips
{
	OFFSET 0.00 0.00 0.00
	CHANNELS 6 Xposition Yposition Zposition Xrotation Yrotation Zrotation
	JOINT Spine
	{
		OFFSET 0.00000 1.70439 2.55658
		CHANNELS 3 Xrotation Yrotation Zrotation
		JOINT Spine1
		{
			OFFSET 0.00000 0.59193 3.35699
			CHANNELS 3 Xrotation Yrotation Zrotation
			JOINT Spine2
			{
				OFFSET 0.00000 0.29710 3.39581
				CHANNELS 3 Xrotation Yrotation Zrotation
				JOINT Spine3
				{
					OFFSET 0.00000 0.00000 3.40878
					CHANNELS 3 Xrotation Yrotation Zrotation
					JOINT Neck
					{
						OFFSET 0.00000 -1.27828 8.94804
						CHANNELS 3 Xrotation Yrotation Zrotation
						JOINT Head
						{
							OFFSET 0.00000 -0.81390 4.61586
							CHANNELS 3 Xrotation Yrotation Zrotation
							End Site
							{
								OFFSET 0.00000 0.00001 5.51796
							}
						}
					}
					JOINT RightShoulder
					{
						OFFSET -1.18875 -1.98124 6.41925
						CHANNELS 3 Xrotation Yrotation Zrotation
						JOINT RightArm
						{
							OFFSET -5.90412 0.00000 0.00000
							CHANNELS 3 Xrotation Yrotation Zrotation
							JOINT RightForeArm
							{
								OFFSET -11.94674 0.00000 0.00000
								CHANNELS 3 Xrotation Yrotation Zrotation
								JOINT RightHand
								{
									OFFSET -10.17720 0.00000 0.00000
									CHANNELS 3 Xrotation Yrotation Zrotation
									JOINT RightHandEnd
									{
										OFFSET -2.84518 0.00000 0.00000
										CHANNELS 3 Xrotation Yrotation Zrotation
										End Site
										{
											OFFSET -2.84518 0.00000 0.00000
										}
									}
									JOINT RightHandThumb1
									{
										OFFSET -1.13807 -1.89679 -0.75871
										CHANNELS 3 Yrotation Xrotation Zrotation
										End Site
										{
											OFFSET -2.74823 -0.73639 0.00000
										}
									}
								}
							}
						}
					}
					JOINT LeftShoulder
					{
						OFFSET 1.18875 -1.98124 6.41925
						CHANNELS 3 Xrotation Yrotation Zrotation
						JOINT LeftArm
						{
							OFFSET 5.90412 0.00000 0.00000
							CHANNELS 3 Xrotation Yrotation Zrotation
							JOINT LeftForeArm
							{
								OFFSET 11.94674 0.00000 0.00000
								CHANNELS 3 Xrotation Yrotation Zrotation
								JOINT LeftHand
								{
									OFFSET 10.17720 0.00000 0.00000
									CHANNELS 3 Xrotation Yrotation Zrotation
									JOINT LeftHandEnd
									{
										OFFSET 2.84518 0.00000 0.00000
										CHANNELS 3 Xrotation Yrotation Zrotation
										End Site
										{
											OFFSET 2.84518 0.00000 0.00000
										}
									}
									JOINT LeftHandThumb1
									{
										OFFSET 1.13807 -1.89679 -0.75871
										CHANNELS 3 Yrotation Xrotation Zrotation
										End Site
										{
											OFFSET 2.74823 -0.73639 0.00000
										}
									}
								}
							}
						}
					}
				}
			}
		}
	}
	JOINT RightUpLeg
	{
		OFFSET -3.52662 0.00000 -1.03025
		CHANNELS 3 Xrotation Yrotation Zrotation
		JOINT RightLeg
		{
			OFFSET 0.00001 0.00000 -17.80159
			CHANNELS 3 Xrotation Yrotation Zrotation
			JOINT RightFoot
			{
				OFFSET 0.00001 0.00000 -16.85992
				CHANNELS 3 Xrotation Yrotation Zrotation
				JOINT RightToeBase
				{
					OFFSET 0.00000 -5.42953 -1.97619
					CHANNELS 3 Xrotation Yrotation Zrotation
					End Site
					{
						OFFSET 0.00000 -2.85300 -0.00000
					}
				}
			}
		}
	}
	JOINT LeftUpLeg
	{
		OFFSET 3.52662 0.00000 -1.03025
		CHANNELS 3 Xrotation Yrotation Zrotation
		JOINT LeftLeg
		{
			OFFSET 0.00001 0.00000 -17.80159
			CHANNELS 3 Xrotation Yrotation Zrotation
			JOINT LeftFoot
			{
				OFFSET 0.00001 0.00000 -16.85992
				CHANNELS 3 Xrotation Yrotation Zrotation
				JOINT LeftToeBase
				{
					OFFSET 0.00000 -5.42953 -1.97619
					CHANNELS 3 Xrotation Yrotation Zrotation
					End Site
					{
						OFFSET 0.00000 -2.85300 -0.00000
					}
				}
			}
		}
	}
}
MOTION
Frames: 7
Frame Time: 0.008342
 -0.0777 -39.3711 30.7895 16.0631 -0.6587 -151.8061 12.8378 0.3771 -0.2921 4.4824 0.0876 0.0371 6.9251 2.1618 1.9295 3.6713 0.1069 0.4013 8.1329 8.1492 4.8268 11.4497 -0.6165 7.2184 6.6119 -5.7363 32.8061 -22.9170 -36.0533 20.8439 0.0000 0.0000 17.9604 -60.6745 11.0910 -13.3177 -0.0000 0.0000 -0.0000 -0.0000 0.0000 -0.0000 4.1739 0.9651 -31.2217 23.7942 34.4878 -73.4785 -0.0000 -0.0000 -34.4581 -27.6938 -17.4166 7.4701 -0.0000 -0.0000 0.0000 0.0000 0.0000 0.0000 -31.4233 18.5937 -33.5867 45.2205 0.0000 0.0000 5.3536 5.9673 -29.8075 1.2484 0.0000 0.0000 -40.1045 -10.0040 3.4269 73.9676 0.0000 0.0000 -17.1463 -2.0567 4.5246 -2.5750 0.0000 -0.0000
 -0.1796 -39.4757 30.7768 16.3024 -0.6899 -152.0277 12.7863 0.4019 -0.3019 4.4540 0.0597 0.0311 6.9403 2.1586 1.9821 3.6877 0.0831 0.4288 8.1461 8.0380 4.8212 11.5129 -0.6474 7.2050 6.7706 -5.8366 32.7279 -22.9100 -36.0471 20.8631 0.0000 0.0000 18.0335 -60.7204 11.0273 -13.2867 -0.0000 -0.0000 0.0000 -0.0000 -0.0000 0.0000 4.2466 0.9598 -31.2221 23.8716 34.5429 -73.5131 -0.0000 -0.0000 -34.4590 -27.5885 -17.3819 7.5592 0.0000 0.0000 0.0000 0.0000 0.0000 0.0000 -31.1248 18.5587 -33.7114 44.8035 0.0000 0.0000 5.6204 5.8259 -29.4887 1.1653 0.0000 0.0000 -39.8816 -9.9476 3.5265 73.9044 0.0000 0.0000 -17.2464 -2.1299 4.6578 -2.5165 0.0000 -0.0000
 -0.2831 -39.5855 30.7702 16.5185 -0.7175 -152.2585 12.7173 0.4152 -0.3116 4.4317 0.0758 0.0424 6.9513 2.1094 2.0176 3.7013 0.0653 0.4487 8.1467 7.9354 4.8156 11.5726 -0.6767 7.1810 6.9116 -5.9453 32.6765 -22.8996 -36.0233 20.8644 0.0000 0.0000 18.0911 -60.7616 10.9595 -13.2600 0.0000 0.0000 -0.0000 -0.0000 -0.0000 0.0000 4.3272 0.9483 -31.2281 23.9358 34.5994 -73.5448 -0.0000 -0.0000 -34.4554 -27.5069 -17.3687 7.6321 0.0000 -0.0000 -0.0000 0.0000 0.0000 0.0000 -30.8124 18.5300 -33.8548 44.3184 0.0000 0.0000 5.9059 5.6804 -29.1385 1.1241 0.0000 0.0000 -39.6470 -9.8806 3.6361 73.7842 0.0000 0.0000 -17.3544 -2.1523 4.7589 -2.4604 0.0000 -0.0000
 -0.3877 -39.7002 30.7706 16.7254 -0.7428 -152.4925 12.6507 0.4440 -0.3274 4.4118 0.0392 0.0368 6.9540 2.0947 2.0657 3.7132 0.0403 0.4727 8.1308 7.8376 4.8051 11.6311 -0.7013 7.1440 7.0508 -6.0538 32.6367 -22.8779 -35.9763 20.8827 0.0000 0.0000 18.1184 -60.7961 10.8869 -13.2402 0.0000 -0.0000 -0.0000 0.0000 0.0000 0.0000 4.3981 0.9349 -31.2408 24.0074 34.6586 -73.5793 -0.0000 -0.0000 -34.4491 -27.4516 -17.3703 7.6837 -0.0000 0.0000 0.0000 0.0000 -0.0000 -0.0000 -30.4679 18.4998 -34.0217 43.7577 0.0000 0.0000 6.2299 5.5211 -28.7567 1.1264 0.0000 0.0000 -39.3933 -9.8069 3.7564 73.6101 0.0000 0.0000 -17.4566 -2.1621 4.8465 -2.4020 0.0000 -0.0000
 -0.4926 -39.8195 30.7787 16.9297 -0.7618 -152.7367 12.5956 0.4604 -0.3376 4.3929 0.0328 0.0433 6.9563 2.0458 2.0953 3.7188 0.0184 0.4987 8.0998 7.7445 4.7932 11.6857 -0.7183 7.0949 7.1693 -6.1650 32.6206 -22.8414 -35.9108 20.8959 0.0000 0.0000 18.1215 -60.8159 10.8075 -13.2291 -0.0000 0.0000 -0.0000 -0.0000 -0.0000 0.0000 4.4715 0.9155 -31.2556 24.0717 34.6958 -73.6161 -0.0000 -0.0000 -34.4407 -27.4389 -17.3971 7.7132 -0.0000 0.0000 -0.0000 0.0000 -0.0000 -0.0000 -30.0891 18.4635 -34.1961 43.1222 0.0000 0.0000 6.6143 5.3303 -28.3413 1.1592 0.0000 0.0000 -39.1122 -9.7308 3.9035 73.3844 0.0000 0.0000 -17.5362 -2.1943 4.9401 -2.3388 0.0000 -0.0000
 -0.5973 -39.9447 30.7939 17.1092 -0.7854 -152.9836 12.5374 0.4720 -0.3590 4.3770 0.0222 0.0434 6.9403 1.9957 2.1421 3.7264 -0.0065 0.5235 8.0504 7.6607 4.7780 11.7350 -0.7326 7.0311 7.2705 -6.2654 32.6194 -22.7945 -35.8344 20.9084 0.0000 0.0000 18.1019 -60.8241 10.7330 -13.2222 0.0000 0.0000 0.0000 0.0000 0.0000 0.0000 4.5224 0.8989 -31.2724 24.1556 34.7243 -73.6628 -0.0000 -0.0000 -34.4296 -27.4580 -17.4371 7.7196 0.0000 0.0000 -0.0000 0.0000 0.0000 0.0000 -29.7099 18.4277 -34.3726 42.4244 0.0000 0.0000 7.0782 5.0833 -27.8873 1.1953 0.0000 0.0000 -38.8403 -9.6436 4.0752 73.1145 0.0000 0.0000 -17.5711 -2.2748 5.0609 -2.2712 0.0000 -0.0000
 -0.7009 -40.0750 30.8171 17.2739 -0.8082 -153.2397 12.4835 0.4870 -0.3763 4.3618 -0.0015 0.0435 6.9233 1.9466 2.1882 3.7271 -0.0343 0.5538 7.9870 7.5819 4.7560 11.7751 -0.7409 6.9540 7.3591 -6.3663 32.6297 -22.7074 -35.7223 20.9499 0.0000 0.0000 18.0509 -60.8350 10.6512 -13.2253 0.0000 0.0000 -0.0000 0.0000 -0.0000 -0.0000 4.5663 0.8739 -31.3011 24.2338 34.7269 -73.7094 -0.0000 -0.0000 -34.4186 -27.5112 -17.5011 7.7126 -0.0000 -0.0000 -0.0000 -0.0000 0.0000 -0.0000 -29.3256 18.3897 -34.5367 41.6723 0.0000 0.0000 7.6355 4.7515 -27.3841 1.1951 0.0000 0.0000 -38.5632 -9.5511 4.2820 72.7985 0.0000 0.0000 -17.5459 -2.4166 5.2177 -2.2016 0.0000 -0.0000
